<svg width="118" height="34" viewBox="0 0 118 34" fill="none" xmlns="http://www.w3.org/2000/svg">
<path d="M0 26.1V0.899999H20.016V6.264H6.192V10.98H15.408V16.164H6.192V26.1H0Z" fill="#6BD501"/>
<path d="M29.0784 26.46C27.1344 26.46 25.3824 26.028 23.8224 25.164C22.2624 24.276 21.0264 23.088 20.1144 21.6C19.2024 20.112 18.7464 18.444 18.7464 16.596C18.7464 14.748 19.2024 13.08 20.1144 11.592C21.0264 10.08 22.2624 8.892 23.8224 8.028C25.3824 7.14 27.1344 6.696 29.0784 6.696C31.0224 6.696 32.7744 7.14 34.3344 8.028C35.8944 8.892 37.1304 10.08 38.0424 11.592C38.9544 13.08 39.4104 14.748 39.4104 16.596C39.4104 18.444 38.9544 20.112 38.0424 21.6C37.1304 23.088 35.8944 24.276 34.3344 25.164C32.7744 26.028 31.0224 26.46 29.0784 26.46ZM29.0784 21.42C29.9664 21.42 30.7584 21.204 31.4544 20.772C32.1504 20.34 32.7024 19.764 33.1104 19.044C33.5184 18.3 33.7224 17.484 33.7224 16.596C33.7224 15.684 33.5184 14.868 33.1104 14.148C32.7024 13.404 32.1384 12.816 31.4184 12.384C30.7224 11.952 29.9424 11.736 29.0784 11.736C28.2144 11.736 27.4224 11.952 26.7024 12.384C26.0064 12.816 25.4544 13.404 25.0464 14.148C24.6384 14.868 24.4344 15.684 24.4344 16.596C24.4344 17.484 24.6384 18.3 25.0464 19.044C25.4544 19.764 26.0064 20.34 26.7024 20.772C27.4224 21.204 28.2144 21.42 29.0784 21.42Z" fill="#6BD501"/>
<path d="M51.6136 26.46C49.6696 26.46 47.9176 26.028 46.3576 25.164C44.7976 24.276 43.5616 23.088 42.6496 21.6C41.7376 20.112 41.2816 18.444 41.2816 16.596C41.2816 14.748 41.7376 13.08 42.6496 11.592C43.5616 10.08 44.7976 8.892 46.3576 8.028C47.9176 7.14 49.6696 6.696 51.6136 6.696C53.5576 6.696 55.3096 7.14 56.8696 8.028C58.4296 8.892 59.6656 10.08 60.5776 11.592C61.4896 13.08 61.9456 14.748 61.9456 16.596C61.9456 18.444 61.4896 20.112 60.5776 21.6C59.6656 23.088 58.4296 24.276 56.8696 25.164C55.3096 26.028 53.5576 26.46 51.6136 26.46ZM51.6136 21.42C52.5016 21.42 53.2936 21.204 53.9896 20.772C54.6856 20.34 55.2376 19.764 55.6456 19.044C56.0536 18.3 56.2576 17.484 56.2576 16.596C56.2576 15.684 56.0536 14.868 55.6456 14.148C55.2376 13.404 54.6736 12.816 53.9536 12.384C53.2576 11.952 52.4776 11.736 51.6136 11.736C50.7496 11.736 49.9576 11.952 49.2376 12.384C48.5416 12.816 47.9896 13.404 47.5816 14.148C47.1736 14.868 46.9696 15.684 46.9696 16.596C46.9696 17.484 47.1736 18.3 47.5816 19.044C47.9896 19.764 48.5416 20.34 49.2376 20.772C49.9576 21.204 50.7496 21.42 51.6136 21.42Z" fill="#6BD501"/>
<path d="M73.5368 26.352C71.7367 26.352 70.0928 25.92 68.6048 25.056C67.1408 24.168 65.9768 22.992 65.1128 21.528C64.2488 20.04 63.8167 18.384 63.8167 16.56C63.8167 14.736 64.2488 13.092 65.1128 11.628C66.0008 10.14 67.1888 8.964 68.6768 8.1C70.1888 7.236 71.8688 6.804 73.7168 6.804C74.6048 6.804 75.4567 6.912 76.2728 7.128C77.0888 7.344 77.8568 7.656 78.5768 8.064V0.899999L84.4088 0V26.1H78.6488V24.696C77.1367 25.8 75.4328 26.352 73.5368 26.352ZM74.5448 21.384C75.3608 21.384 76.1048 21.264 76.7768 21.024C77.4488 20.76 78.0488 20.376 78.5768 19.872V13.212C78.0728 12.732 77.4728 12.372 76.7768 12.132C76.0808 11.868 75.3368 11.736 74.5448 11.736C73.6088 11.736 72.7568 11.952 71.9888 12.384C71.2448 12.792 70.6448 13.368 70.1888 14.112C69.7568 14.832 69.5408 15.648 69.5408 16.56C69.5408 17.472 69.7568 18.3 70.1888 19.044C70.6448 19.764 71.2448 20.34 71.9888 20.772C72.7568 21.18 73.6088 21.384 74.5448 21.384Z" fill="#6BD501"/>
<path d="M88.0245 26.1V0.899999L93.8565 0V26.1H88.0245Z" fill="#6BD501"/>
<path d="M99.7144 33.876C99.2584 33.876 98.8144 33.852 98.3824 33.804C97.9504 33.78 97.5904 33.732 97.3024 33.66V28.692C97.7824 28.788 98.3824 28.836 99.1024 28.836C100.974 28.836 102.234 28.02 102.882 26.388V26.352L95.5744 7.056H102.018L106.23 19.044L111.126 7.056H117.426L108.894 27.072C108.198 28.728 107.43 30.048 106.59 31.032C105.75 32.04 104.778 32.76 103.674 33.192C102.57 33.648 101.25 33.876 99.7144 33.876Z" fill="#6BD501"/>
</svg>
